<svg version="1.1" xmlns="http://www.w3.org/2000/svg" xmlns:xlink="http://www.w3.org/1999/xlink" x="0px" y="0px" viewBox="0 0 30 30" enable-background="new 0 0 30 30" xml:space="preserve" width="30"  height="30" ><title>Facebook</title><path fill="#FFFFFF" d="M23.5,5.5H6.6C6,5.5,5.5,6,5.5,6.6v16.9c0,0.6,0.5,1,1.1,1h9.1v-7.3h-2.5v-2.9h2.5v-2.1c0-2.5,1.5-3.8,3.7-3.8c0.7,0,1.5,0,2.2,0.1v2.6h-1.5c-1.2,0-1.4,0.6-1.4,1.4v1.8h2.8l-0.4,2.9h-2.5v7.3h4.9c0.6,0,1-0.5,1-1V6.6C24.5,6,24,5.5,23.5,5.5z"></path></svg>