<svg version="1.1" xmlns="http://www.w3.org/2000/svg" xmlns:xlink="http://www.w3.org/1999/xlink" x="0px" y="0px" viewBox="0 0 30 30" enable-background="new 0 0 30 30" xml:space="preserve" width="30"  height="30" ><title>Instagram</title><path fill="#FFFFFF" d="M15,5.5c-2.6,0-2.9,0-3.9,0.1c-1,0-1.7,0.2-2.3,0.4C8.2,6.2,7.6,6.6,7.1,7.1S6.2,8.2,6,8.8c-0.2,0.6-0.4,1.3-0.4,2.3c-0.1,1-0.1,1.3-0.1,3.9s0,2.9,0.1,3.9c0,1,0.2,1.7,0.4,2.3c0.2,0.6,0.6,1.2,1.1,1.7s1.1,0.9,1.7,1.1c0.6,0.2,1.3,0.4,2.3,0.4s1.3,0.1,3.9,0.1s2.9,0,3.9-0.1c1,0,1.7-0.2,2.3-0.4c0.6-0.2,1.2-0.6,1.7-1.1s0.9-1.1,1.1-1.7c0.2-0.6,0.4-1.3,0.4-2.3s0.1-1.3,0.1-3.9s0-2.9-0.1-3.9c0-1-0.2-1.7-0.4-2.3c-0.2-0.6-0.6-1.2-1.1-1.7S21.8,6.2,21.2,6c-0.6-0.2-1.3-0.4-2.3-0.4C17.9,5.5,17.6,5.5,15,5.5 M15,7.2c2.5,0,2.8,0,3.8,0.1c0.9,0,1.4,0.2,1.8,0.3C21,7.8,21.4,8,21.7,8.3s0.5,0.7,0.7,1.1c0.1,0.3,0.3,0.8,0.3,1.8s0.1,1.3,0.1,3.9c0,2.5,0,2.8-0.1,3.8c0,0.9-0.2,1.4-0.3,1.8c-0.2,0.4-0.4,0.8-0.7,1.1c-0.3,0.3-0.6,0.5-1.1,0.7c-0.3,0.1-0.8,0.3-1.8,0.3s-1.3,0.1-3.8,0.1s-2.8,0-3.8-0.1c-0.9,0-1.4-0.2-1.8-0.3c-0.4-0.2-0.8-0.4-1.1-0.7c-0.3-0.3-0.5-0.7-0.7-1.1c-0.1-0.3-0.3-0.8-0.3-1.8s-0.1-1.3-0.1-3.8s0-2.8,0.1-3.9c0-0.9,0.2-1.4,0.3-1.8C7.8,9,8,8.6,8.3,8.3C8.6,8,8.9,7.8,9.4,7.6c0.3-0.1,0.8-0.3,1.8-0.3C12.2,7.2,12.5,7.2,15,7.2M15,18.2c-1.7,0-3.2-1.4-3.2-3.2s1.4-3.2,3.2-3.2s3.2,1.4,3.2,3.2S16.7,18.2,15,18.2 M15,10.1c-2.7,0-4.9,2.2-4.9,4.9s2.2,4.9,4.9,4.9s4.9-2.2,4.9-4.9S17.7,10.1,15,10.1 M21.2,9.9c0,0.6-0.5,1.1-1.1,1.1c-0.6,0-1.1-0.5-1.1-1.1c0-0.6,0.5-1.1,1.1-1.1C20.7,8.8,21.2,9.3,21.2,9.9"></path></svg>