<svg version="1.1" xmlns="http://www.w3.org/2000/svg" xmlns:xlink="http://www.w3.org/1999/xlink" x="0px" y="0px" viewBox="0 0 30 30" enable-background="new 0 0 30 30" xml:space="preserve" width="30"  height="30" ><title>LinkedIn</title><path fill="#FFFFFF" d="M24.5,20.9c0,2-1.6,3.6-3.6,3.6H9.1c-2,0-3.6-1.6-3.6-3.6V9.1c0-2,1.6-3.6,3.6-3.6h11.8c2,0,3.6,1.6,3.6,3.6V20.9z M9.9,8.7c-1,0-1.6,0.6-1.6,1.5c-0.1,0.9,0.5,1.5,1.5,1.5l0,0c1,0,1.6-0.6,1.6-1.5C11.4,9.3,10.8,8.7,9.9,8.7z M11.3,21.4v-8.6H8.5v8.6H11.3z M21.5,21.4v-4.9c0-2.6-1.4-3.8-3.3-3.8c-1.5,0-2.1,0.9-2.5,1.5l0,0v-1.2h-2.8c0,0,0,0.9,0,8.6h2.8v-4.9c0-0.2,0-0.5,0.1-0.7c0.1-0.5,0.6-1,1.5-1c1,0,1.5,0.7,1.5,2v4.6H21.5z"></path></svg>