<svg version="1.1" xmlns="http://www.w3.org/2000/svg" xmlns:xlink="http://www.w3.org/1999/xlink" x="0px" y="0px" viewBox="0 0 30 30" enable-background="new 0 0 30 30" xml:space="preserve" width="30"  height="30" ><title>YouTube</title><path fill="#FFFFFF" d="M27.6,10c0,0-0.3-1.7-1.1-2.5c-1-1.1-2.1-1.1-2.6-1.1c-3.5-0.3-9-0.3-9-0.3l0,0c0,0-5.4,0-9,0.3c-0.6,0-1.6,0-2.7,1.1c-0.8,0.8-1,2.5-1,2.5s-0.3,2-0.3,4.1V16c0,2,0.3,4.1,0.3,4.1s0.3,1.7,1.1,2.5c1,1.1,2.3,1,2.9,1.1C8.3,23.9,15,24,15,24s5.4,0,9.1-0.3c0.5-0.1,1.6-0.1,2.6-1.1c0.8-0.8,1.1-2.5,1.1-2.5s0.3-2,0.3-4.1v-1.9C27.9,12,27.6,10,27.6,10z M12.3,18.6v-7.2l6.9,3.4L12.3,18.6z"></path></svg>